<svg xmlns="http://www.w3.org/2000/svg" viewBox="0 0 600 560"><defs><linearGradient id="wood" x1="0" x2="1" y2=".2"><stop stop-color="#b7824e"/><stop offset=".4" stop-color="#d8b384"/><stop offset=".7" stop-color="#c29460"/><stop offset="1" stop-color="#9b6c40"/></linearGradient><linearGradient id="linen" x2=".8" y2="1"><stop stop-color="#f4ead6"/><stop offset="1" stop-color="#c8b799"/></linearGradient><linearGradient id="clay" x2="1" y2=".3"><stop stop-color="#a9563d"/><stop offset=".4" stop-color="#cf8767"/><stop offset="1" stop-color="#a15640"/></linearGradient><linearGradient id="glass" x1="0" x2="1" y2="1"><stop stop-color="#c0c7bd"/><stop offset=".48" stop-color="#e8e7dc"/><stop offset=".5" stop-color="#f4f0e4"/><stop offset="1" stop-color="#bec7ba"/></linearGradient><linearGradient id="olive" x2="1" y2="1"><stop stop-color="#929275"/><stop offset="1" stop-color="#535a40"/></linearGradient><radialGradient id="bg"><stop stop-color="#f1ece3"/><stop offset="1" stop-color="#e3dcd0"/></radialGradient><filter id="shadow"><feGaussianBlur stdDeviation="9"/></filter><pattern id="weave" width="5" height="5" patternUnits="userSpaceOnUse"><path d="M0 0h5M0 0v5" stroke="#756747" stroke-width=".35" opacity=".2"/></pattern></defs><rect width="600" height="560" fill="url(#bg)"/><g transform=""><ellipse cx="307" cy="466" rx="157" ry="15" fill="#655b4b" opacity=".16" filter="url(#shadow)"/><path d="M191 463V220a109 109 0 0 1 218 0v243z" fill="url(#wood)"/><path d="M206 448V220a94 94 0 0 1 188 0v228z" fill="url(#glass)"/><path d="M214 441V220a85 85 0 0 1 172 0" fill="none" stroke="#f6e8d3" opacity=".45" stroke-width="3"/><path d="M208 339l184-98v32L208 371z" fill="#fff" opacity=".22"/></g></svg>